<svg width="24" height="24" viewBox="0 0 24 24" fill="none" xmlns="http://www.w3.org/2000/svg">
<path d="M12 22C17.5228 22 22 17.5228 22 12C22 6.47715 17.5228 2 12 2C6.47715 2 2 6.47715 2 12C2 17.5228 6.47715 22 12 22Z" stroke="black" stroke-linecap="round" stroke-linejoin="round"/>
<path d="M11.279 12.25C11.405 11.899 11.495 11.6155 11.549 11.3995C11.603 11.1835 11.63 11.0125 11.63 10.8865C11.63 10.7605 11.6075 10.6795 11.5625 10.6435C11.5265 10.5985 11.486 10.576 11.441 10.576C11.342 10.576 11.234 10.6255 11.117 10.7245C11 10.8145 10.883 10.9225 10.766 11.0485C10.649 11.1745 10.5455 11.3005 10.4555 11.4265C10.3655 11.5525 10.3025 11.6515 10.2665 11.7235L9.875 11.4805C9.983 11.2825 10.1315 11.062 10.3205 10.819C10.5185 10.576 10.739 10.351 10.982 10.144C11.225 9.937 11.477 9.766 11.738 9.631C11.999 9.487 12.2465 9.415 12.4805 9.415C12.7055 9.415 12.872 9.4825 12.98 9.6175C13.097 9.7435 13.1555 9.9775 13.1555 10.3195C13.1555 10.5805 13.0745 10.9315 12.9125 11.3725C12.7595 11.8135 12.557 12.3805 12.305 13.0735L11.8055 14.437C11.7875 14.482 11.7605 14.554 11.7245 14.653C11.6975 14.743 11.666 14.842 11.63 14.95C11.603 15.049 11.576 15.148 11.549 15.247C11.531 15.346 11.522 15.427 11.522 15.49C11.522 15.571 11.5445 15.643 11.5895 15.706C11.6345 15.769 11.7065 15.8005 11.8055 15.8005C11.9405 15.8005 12.08 15.7465 12.224 15.6385C12.368 15.5215 12.5075 15.3865 12.6425 15.2335C12.7775 15.0805 12.899 14.9275 13.007 14.7745C13.115 14.6125 13.196 14.4865 13.25 14.3965L13.655 14.626C13.547 14.842 13.3985 15.0805 13.2095 15.3415C13.0295 15.6025 12.8225 15.8455 12.5885 16.0705C12.3545 16.2865 12.098 16.471 11.819 16.624C11.54 16.768 11.252 16.84 10.955 16.84C10.694 16.84 10.496 16.7725 10.361 16.6375C10.235 16.5025 10.172 16.2775 10.172 15.9625C10.172 15.7015 10.2125 15.4225 10.2935 15.1255C10.3835 14.8195 10.5095 14.437 10.6715 13.978L11.279 12.25ZM13.2635 7.951C13.0385 7.951 12.8405 7.8745 12.6695 7.7215C12.5075 7.5685 12.4265 7.3705 12.4265 7.1275C12.4265 6.8845 12.5075 6.6775 12.6695 6.5065C12.8315 6.3355 13.0295 6.25 13.2635 6.25C13.5155 6.25 13.7225 6.3355 13.8845 6.5065C14.0465 6.6775 14.1275 6.88 14.1275 7.114C14.1275 7.348 14.042 7.546 13.871 7.708C13.7 7.87 13.4975 7.951 13.2635 7.951Z" fill="black"/>
</svg>
