<svg width="16" height="16" viewBox="0 0 16 16" fill="none" xmlns="http://www.w3.org/2000/svg">
<path d="M12.8327 8.12251C12.8327 10.0469 11.6118 11.896 10.2992 13.313C9.65246 14.0112 9.0041 14.5824 8.51694 14.9791C8.31058 15.1472 8.13385 15.2834 7.99935 15.3841C7.86485 15.2834 7.68812 15.1472 7.48175 14.9791C6.9946 14.5824 6.34624 14.0112 5.69949 13.313C4.38688 11.896 3.16602 10.0469 3.16602 8.12251C3.16602 6.80491 3.67791 5.54347 4.58562 4.61513C5.49295 3.68717 6.72114 3.16797 7.99935 3.16797C9.27756 3.16797 10.5057 3.68717 11.4131 4.61513C12.3208 5.54347 12.8327 6.80491 12.8327 8.12251Z" stroke="black" stroke-linecap="round" stroke-linejoin="round"/>
<path d="M8 10C9.10457 10 10 9.10457 10 8C10 6.89543 9.10457 6 8 6C6.89543 6 6 6.89543 6 8C6 9.10457 6.89543 10 8 10Z" stroke="black" stroke-linecap="round" stroke-linejoin="round"/>
</svg>
