<svg width="16" height="16" viewBox="0 0 16 16" fill="none" xmlns="http://www.w3.org/2000/svg">
<path d="M14.1654 6.54545C14.1654 8.88647 12.6198 11.1272 10.9722 12.8346C10.1593 13.6772 9.34452 14.3662 8.7324 14.8447C8.42834 15.0825 8.1753 15.2675 7.9987 15.3927C7.8221 15.2675 7.56906 15.0825 7.26499 14.8447C6.65288 14.3662 5.83814 13.6772 5.02517 12.8346C3.37764 11.1272 1.83203 8.88647 1.83203 6.54545C1.83203 4.94509 2.47946 3.40838 3.63495 2.2739C4.79075 1.13912 6.36027 0.5 7.9987 0.5C9.63713 0.5 11.2066 1.13912 12.3624 2.2739C13.5179 3.40838 14.1654 4.94509 14.1654 6.54545Z" stroke="black" stroke-linecap="round" stroke-linejoin="round"/>
<path d="M8 8.66797C9.10457 8.66797 10 7.77254 10 6.66797C10 5.5634 9.10457 4.66797 8 4.66797C6.89543 4.66797 6 5.5634 6 6.66797C6 7.77254 6.89543 8.66797 8 8.66797Z" stroke="black" stroke-linecap="round" stroke-linejoin="round"/>
</svg>
