<svg width="28" height="76" viewBox="0 0 28 76" fill="none" xmlns="http://www.w3.org/2000/svg">
<g clip-path="url(#clip0_2714_7511)">
<path fill-rule="evenodd" clip-rule="evenodd" d="M4.34103 17.0792C4.14381 17.2974 4.00488 17.565 3.9379 17.8556C3.9154 18.1116 4.08414 18.5421 4.30912 18.5188C5.50805 18.152 6.70222 17.8197 7.88986 17.4891C9.86691 16.9389 11.8259 16.3937 13.7584 15.7032C14.9387 15.2827 15.5009 15.0293 15.9105 15.1829C16.3169 15.3353 16.573 15.8883 17.1332 17.0761C17.3066 17.3656 17.5144 17.6314 17.7519 17.8673C17.9772 18.1575 18.208 18.4434 18.439 18.7296C18.8656 19.2579 19.2927 19.787 19.6868 20.3454C21.5587 22.7651 22.9019 25.5753 23.624 28.5828C23.804 29.502 23.9952 30.6771 22.8141 30.9796C20.7979 31.4535 18.691 31.2956 16.762 30.5258C14.5585 29.721 12.3762 28.8562 10.1932 27.9911C9.18887 27.5931 8.18438 27.195 7.17767 26.8027C4.74784 25.8603 2.86922 27.78 3.43168 29.8743C3.92665 28.3152 4.97282 28.4083 6.019 28.8039C7.38679 29.3095 8.7487 29.8354 10.1105 30.3612C12.0078 31.0938 13.9048 31.8264 15.8171 32.5037C17.7907 33.3813 19.9891 33.5613 22.0716 33.0156C22.9832 32.7877 23.7757 32.2073 24.2863 31.3936C24.7968 30.5799 24.9865 29.5949 24.8164 28.641C24.237 25.4698 22.9505 22.482 21.0592 19.915C20.8365 19.5669 20.648 19.1966 20.4967 18.8097L20.8004 18.6235L22.949 20.6712L23.354 20.2524C22.8123 18.3824 21.4875 17.1358 20.1416 15.8695C19.3355 15.111 18.5218 14.3454 17.8644 13.4344C18.1215 13.2267 18.3728 13.0279 18.6189 12.8332C19.0621 12.4827 19.4883 12.1455 19.9005 11.7939C20.4068 11.3378 20.9196 10.8843 21.434 10.4294C22.4284 9.55001 23.429 8.66523 24.4002 7.74507C24.7192 7.2887 24.9556 6.77622 25.0976 6.23256C22.5241 7.82637 20.038 9.56648 17.6507 11.4449C17.5175 11.5938 17.3546 11.711 17.1733 11.7882C16.9919 11.8654 16.7964 11.9008 16.6005 11.892C16.4046 11.8831 16.2129 11.8302 16.0387 11.7369C15.8645 11.6436 15.7121 11.5122 15.5921 11.3518C14.8181 10.57 14.0154 9.81791 13.2126 9.06585C13.012 8.87783 12.8113 8.68981 12.611 8.50133L8.19009 4.35938C7.35839 6.41481 8.35269 7.4132 9.36481 8.42948C9.65319 8.71905 9.94301 9.01006 10.1925 9.32739C10.9982 10.3524 11.9078 11.2878 12.8716 12.2791C13.2535 12.6718 13.6439 13.0733 14.0397 13.4926C13.8385 13.5758 13.6423 13.6601 13.4488 13.7432C12.9929 13.939 12.5516 14.1286 12.0936 14.2838C11.5111 14.472 10.9272 14.6574 10.3429 14.8429C8.57969 15.4027 6.81173 15.9641 5.06282 16.6107C4.787 16.6995 4.53826 16.8609 4.34103 17.0792ZM17.2221 39.3782C17.908 39.6495 18.5938 39.9207 19.2793 40.1923C19.3374 40.2176 19.3867 40.2603 19.4211 40.3149C19.4554 40.3696 19.4731 40.4336 19.4719 40.4987C19.4707 40.5639 19.4506 40.6271 19.4143 40.6803C19.3779 40.7336 19.327 40.7743 19.2681 40.7973L15.3646 42.1353C14.7514 42.3377 14.1209 42.4921 13.4936 42.6457C11.1289 43.2247 8.80999 43.7926 7.63641 46.8822C6.98139 48.2524 6.69391 49.7792 6.80397 51.3034C6.58019 51.339 6.36063 51.3692 6.14432 51.3989C5.65382 51.4663 5.18001 51.5313 4.71162 51.6525C4.59844 51.6806 4.48461 51.7082 4.37053 51.7359C2.9766 52.0743 1.54472 52.4219 0.785649 53.863C-0.440514 56.1667 -0.553006 58.8078 2.82175 58.9009C4.90286 59.0289 6.98396 59.0289 9.06506 59.0289C11.0911 58.889 13.0953 59.5316 14.6897 60.8322C15.4675 61.5873 16.3153 62.2615 17.2207 62.845C19.8418 64.4855 22.5191 66.1609 25.6689 66.3354C26.0506 66.4199 26.4482 66.3816 26.8083 66.2255C27.1683 66.0695 27.4735 65.8032 27.683 65.4624C27.8924 65.1217 27.996 64.7228 27.9798 64.3194C27.9636 63.916 27.8285 63.5273 27.5925 63.2057C27.2279 62.5301 26.7864 61.9022 26.3406 61.2684C26.1262 60.9635 25.9109 60.6572 25.7026 60.3436C25.7913 60.2389 25.8703 60.1259 25.9389 60.0062L26.6138 58.5169L25.1964 58.261C24.9566 58.2114 24.698 58.1833 24.4385 58.1552C23.8457 58.091 23.2478 58.0262 22.8566 57.7025C19.008 54.6446 14.5126 52.575 9.74001 51.6641C8.31136 51.3267 7.78265 50.5472 7.94014 48.7903C9.51461 51.2697 11.9146 51.5482 14.3201 51.8273C14.5786 51.8573 14.8371 51.8873 15.0946 51.92C15.745 51.9465 16.3912 51.8025 16.9732 51.5012C18.2444 50.9427 18.4019 49.9887 17.277 49.0928C16.5671 48.4691 15.7558 47.9807 14.8809 47.6501C13.6249 47.2088 12.3286 46.8568 11.0002 46.4962C10.4725 46.3529 9.93979 46.2083 9.40254 46.0562C9.78773 45.7984 10.1943 45.5764 10.6174 45.393C11.3077 45.1765 12.0014 44.9783 12.6945 44.7802C13.7523 44.478 14.8085 44.1762 15.8483 43.8107C16.2273 43.6696 16.613 43.5435 16.9979 43.4178C18.6125 42.8902 20.2146 42.3667 21.2592 40.7507C21.4377 40.563 21.5617 40.3273 21.6172 40.0704C21.6726 39.8134 21.6573 39.5455 21.573 39.2971C21.4886 39.0487 21.3386 38.8297 21.14 38.6651C20.9413 38.5004 20.702 38.3967 20.4493 38.3656C18.7394 37.8886 17.0182 37.4581 15.2971 37.0509C14.8136 36.9378 14.3293 36.83 13.8456 36.7223C10.7961 36.0433 7.77495 35.3706 5.17284 33.4325C4.9816 33.3511 4.63287 33.3511 4.35164 33.3511C4.96742 34.1038 5.73544 34.7074 6.60148 35.1195C10.1268 36.5722 13.6758 37.9757 17.2221 39.3782ZM27.3113 64.7648C23.4303 65.5443 16.8383 62.973 14.9371 59.5524L23.4078 60.0992C23.5878 60.1109 23.8353 60.1341 23.9365 60.2621C24.7739 61.3274 25.5739 62.4121 26.42 63.5592C26.7105 63.9531 27.0065 64.3544 27.3113 64.7648ZM6.3765 53.2813C8.03013 53.0952 8.73883 53.7583 10.28 56.4692C9.81265 56.5012 9.36256 56.5222 8.92561 56.5425C8.08989 56.5815 7.30224 56.6182 6.53399 56.7252C5.69485 56.884 4.88096 57.162 4.11541 57.5512C3.60848 57.7036 3.07022 57.7048 2.56269 57.5545C2.05517 57.4042 1.59903 57.1087 1.24687 56.7019C1.14132 56.4879 1.0822 56.2526 1.07361 56.0124C1.06502 55.7723 1.10718 55.5331 1.19714 55.3116C1.2871 55.0901 1.42271 54.8915 1.5945 54.7297C1.76629 54.568 1.97012 54.4469 2.1918 54.375C3.5429 53.8501 4.94653 53.4833 6.3765 53.2813ZM10.9324 55.6082C10.5649 54.9952 10.2524 54.3488 9.99874 53.6769C13.9041 54.142 17.6454 55.5661 20.9105 57.8305L15.3646 57.1557C14.344 57.1102 13.3285 56.9819 12.3273 56.7717C11.7652 56.5284 11.2815 56.1249 10.9324 55.6082ZM9.42503 48.1504C11.7649 48.3482 13.6435 48.7787 15.1396 50.1865V50.2098L15.0652 50.2045C13.122 50.0669 11.2022 49.9311 9.42503 48.1504Z" fill="black"/>
<path fill-rule="evenodd" clip-rule="evenodd" d="M23.9012 1.1916C23.7556 1.56861 23.3134 1.84277 22.7904 1.84277C22.1489 1.84277 21.6289 1.43025 21.6289 0.921386C21.6289 0.412519 22.1489 0 22.7904 0C22.9688 0 23.1379 0.0319153 23.2889 0.0889419C23.4642 0.110606 23.6602 0.198262 23.8839 0.376017C23.9444 0.521547 23.9756 0.678299 23.9756 0.836711C23.9756 0.840725 23.9756 0.844668 23.9756 0.848543C23.9756 0.99756 23.9756 1.04566 23.9167 1.1875C23.9115 1.18886 23.9063 1.19023 23.9012 1.1916Z" fill="black"/>
</g>
<defs>
<clipPath id="clip0_2714_7511">
<rect width="28" height="76" fill="white"/>
</clipPath>
</defs>
</svg>
