<svg width="16" height="16" viewBox="0 0 16 16" fill="none" xmlns="http://www.w3.org/2000/svg">
<g clip-path="url(#clip0_1223_2909)">
<path d="M14.6654 8.0013C14.6654 4.3194 11.6806 1.33463 7.9987 1.33463C4.3168 1.33463 1.33203 4.3194 1.33203 8.0013C1.33203 11.6832 4.3168 14.668 7.9987 14.668C11.6806 14.668 14.6654 11.6832 14.6654 8.0013Z" stroke="black" stroke-linecap="round" stroke-linejoin="round"/>
<path d="M5.33203 7.5H4.83203V8.5H5.33203V7.5ZM10.6654 8.5C10.9415 8.5 11.1654 8.27614 11.1654 8C11.1654 7.72386 10.9415 7.5 10.6654 7.5V8.5ZM5.33203 8.5H10.6654V7.5H5.33203V8.5Z" fill="black"/>
<path d="M8.66797 6L10.668 8L8.66797 10" stroke="black" stroke-linecap="square"/>
</g>
<defs>
<clipPath id="clip0_1223_2909">
<rect width="16" height="16" fill="white" transform="matrix(0 -1 1 0 0 16)"/>
</clipPath>
</defs>
</svg>
