<svg width="64" height="64" viewBox="0 0 64 64" fill="none" xmlns="http://www.w3.org/2000/svg">
<path d="M58.6654 32.0013C58.6654 17.2737 46.7263 5.33463 31.9987 5.33463C17.2711 5.33463 5.33203 17.2737 5.33203 32.0013C5.33203 46.7289 17.2711 58.668 31.9987 58.668C46.7263 58.668 58.6654 46.7289 58.6654 32.0013Z" stroke="black" stroke-width="1.5" stroke-linecap="round" stroke-linejoin="round"/>
<path d="M21.332 31.25H20.582V32.75H21.332V31.25ZM42.6654 32.75C43.0796 32.75 43.4154 32.4142 43.4154 32C43.4154 31.5858 43.0796 31.25 42.6654 31.25V32.75ZM21.332 32.75H42.6654V31.25H21.332V32.75Z" fill="black"/>
<path d="M34.668 24L42.668 32L34.668 40" stroke="black" stroke-width="1.5" stroke-linecap="square"/>
</svg>
